<?xml version="1.0" standalone="no"?>
<!DOCTYPE svg PUBLIC "-//W3C//DTD SVG 20010904//EN"
 "http://www.w3.org/TR/2001/REC-SVG-20010904/DTD/svg10.dtd">
<svg version="1.0" xmlns="http://www.w3.org/2000/svg"
 width="766.000000pt" height="766.000000pt" viewBox="0 0 766.000000 766.000000"
 preserveAspectRatio="xMidYMid meet">
<metadata>
Created by potrace 1.11, written by Peter Selinger 2001-2013
</metadata>
<g transform="translate(0.000000,766.000000) scale(0.100000,-0.100000)"
fill="#000000" stroke="none">
<path d="M3669 7596 c-2 -2 -49 -7 -104 -10 -55 -4 -116 -9 -135 -11 -19 -2
-73 -6 -120 -10 -47 -3 -92 -8 -100 -10 -8 -2 -33 -6 -55 -10 -151 -22 -628
-163 -904 -266 -104 -39 -235 -105 -360 -181 -65 -40 -265 -172 -285 -190 -6
-4 -49 -38 -96 -74 -47 -36 -112 -89 -145 -117 -91 -79 -345 -333 -345 -345 0
-18 57 -71 83 -77 32 -8 84 0 105 17 9 7 35 31 57 53 56 55 180 164 235 206
25 19 47 36 50 40 3 3 43 32 90 66 186 133 412 254 650 348 267 105 755 253
897 271 19 2 38 6 42 8 3 2 30 7 60 11 30 4 63 8 73 10 118 23 679 24 784 1
12 -2 45 -7 75 -11 347 -42 747 -180 979 -339 67 -45 81 -51 127 -50 62 0 97
26 114 85 25 82 -17 130 -211 241 -173 99 -385 182 -625 243 -120 31 -156 38
-240 51 -16 3 -52 9 -80 14 -27 5 -79 12 -115 15 -36 4 -81 9 -100 11 -47 5
-396 14 -401 10z"/>
<path d="M3718 7175 c-2 -1 -52 -5 -113 -9 -186 -11 -214 -14 -375 -35 -665
-89 -1278 -356 -1740 -757 -223 -194 -491 -521 -630 -769 -182 -326 -341 -729
-319 -809 11 -41 47 -75 92 -87 32 -9 45 -7 81 11 49 23 50 25 104 185 279
834 854 1455 1637 1767 94 38 286 103 330 113 11 2 64 15 119 29 54 14 124 30
155 36 31 5 67 11 81 14 14 3 43 7 65 10 22 4 51 8 65 11 14 2 52 7 85 10 33
4 74 8 90 10 161 19 573 26 715 11 165 -17 304 -54 424 -112 87 -43 145 -86
223 -166 59 -61 166 -198 160 -204 -4 -4 -154 34 -182 46 -11 5 -47 20 -80 34
-33 13 -94 42 -135 65 -107 57 -272 112 -405 135 -16 3 -53 10 -81 15 -168 32
-640 35 -789 6 -11 -3 -36 -7 -55 -9 -19 -3 -69 -13 -110 -22 -41 -9 -82 -17
-90 -19 -8 -1 -22 -5 -30 -8 -8 -3 -41 -13 -73 -22 -31 -8 -72 -29 -90 -45
-29 -25 -32 -34 -32 -84 0 -47 4 -59 29 -85 44 -46 79 -48 209 -13 217 59 356
76 627 76 356 0 567 -42 800 -160 143 -72 249 -112 380 -144 67 -16 199 -37
264 -42 28 -3 34 -9 126 -142 90 -130 305 -363 435 -471 75 -62 279 -266 325
-324 19 -24 40 -48 45 -55 6 -6 33 -42 61 -81 227 -312 407 -675 572 -1150 52
-151 143 -477 171 -615 6 -30 14 -66 17 -80 2 -14 10 -52 16 -85 17 -94 56
-137 125 -137 57 0 90 20 114 68 l21 44 -27 138 c-155 792 -479 1556 -869
2047 -122 153 -213 249 -386 401 -251 222 -350 339 -585 694 -89 135 -183 272
-210 305 -64 81 -176 188 -246 236 -65 44 -207 119 -227 119 -7 0 -20 4 -30
10 -9 5 -44 17 -77 27 -70 20 -59 17 -115 27 -25 5 -54 10 -65 12 -10 2 -37 6
-60 9 -22 3 -58 8 -80 11 -38 6 -452 13 -457 9z"/>
<path d="M5405 6738 c-50 -29 -71 -75 -62 -134 8 -45 20 -59 87 -102 310 -196
634 -558 865 -967 50 -89 155 -298 155 -310 0 -6 15 -26 34 -44 46 -45 100
-49 155 -13 41 26 56 60 54 117 -1 47 -208 433 -326 610 -39 58 -171 238 -192
261 -5 6 -30 36 -55 65 -71 86 -268 279 -355 349 -44 35 -120 90 -170 122 -94
61 -143 73 -190 46z"/>
<path d="M2477 6495 c-67 -23 -452 -260 -497 -305 -3 -3 -50 -41 -105 -84
-126 -100 -376 -350 -483 -482 -347 -433 -596 -955 -757 -1589 -83 -327 -90
-375 -61 -421 36 -53 105 -73 162 -46 43 20 59 51 84 167 25 120 75 321 97
390 91 295 161 480 263 691 72 152 187 353 237 419 5 6 17 24 27 40 137 219
443 538 686 714 30 22 60 44 65 48 26 21 186 123 221 142 21 12 46 26 54 31 8
5 44 26 78 46 46 26 68 45 77 68 42 100 -49 205 -148 171z"/>
<path d="M3530 6357 c-3 -3 -41 -7 -85 -11 -44 -3 -91 -8 -105 -11 -14 -2 -36
-7 -50 -10 -14 -3 -42 -7 -62 -11 -21 -3 -81 -16 -135 -30 -54 -13 -107 -26
-117 -29 -209 -50 -583 -240 -780 -395 -158 -125 -361 -325 -466 -459 -265
-338 -464 -719 -617 -1181 -30 -91 -56 -172 -58 -180 -2 -8 -9 -35 -16 -60 -7
-25 -13 -49 -15 -55 -1 -5 -13 -55 -27 -110 -21 -84 -60 -271 -82 -390 -7 -39
-36 -241 -40 -280 -1 -16 -6 -55 -9 -85 -15 -133 -18 -186 -21 -365 -5 -290 9
-345 92 -374 49 -17 83 -10 126 28 l32 29 1 244 c1 217 6 341 19 418 2 14 7
50 10 80 3 30 7 66 10 79 2 13 7 49 10 80 4 31 8 63 10 71 3 8 7 31 10 50 5
28 36 183 60 302 11 54 71 271 106 383 90 287 250 644 393 874 63 101 208 299
272 370 463 521 1053 787 1724 776 102 -2 199 -6 215 -9 17 -3 46 -9 65 -12
68 -12 78 -14 166 -40 388 -112 692 -341 972 -731 29 -40 52 -75 52 -78 0 -2
15 -28 33 -57 102 -160 231 -452 283 -638 8 -30 20 -71 25 -90 5 -19 12 -53
15 -75 3 -22 9 -56 14 -75 5 -19 12 -66 15 -105 4 -38 8 -77 11 -85 18 -69 27
-727 12 -875 -29 -268 -66 -427 -144 -618 -44 -108 -227 -483 -245 -502 -13
-13 -4 87 17 188 20 101 20 99 27 117 3 8 10 33 15 55 6 22 24 92 41 155 38
137 33 118 66 255 35 146 62 284 72 370 10 88 10 407 0 460 -15 77 -62 116
-134 111 -79 -6 -127 -71 -112 -150 8 -42 5 -351 -5 -418 -3 -21 -10 -64 -16
-95 -6 -32 -14 -71 -16 -88 -3 -16 -12 -57 -21 -90 -8 -33 -16 -67 -18 -75 -2
-8 -32 -125 -68 -260 -71 -263 -71 -266 -91 -382 -17 -101 -13 -274 8 -364 9
-39 39 -114 65 -167 50 -99 52 -110 35 -207 -14 -81 -74 -252 -145 -408 -73
-161 -257 -510 -336 -634 -12 -21 -23 -40 -23 -42 0 -2 -45 -77 -100 -165
l-99 -162 47 6 c71 9 284 51 287 58 1 1 32 54 70 117 37 63 78 133 90 155 13
22 46 83 75 135 169 305 309 620 359 810 27 104 32 141 32 248 0 127 17 175
153 449 175 352 195 396 254 568 49 141 87 334 108 545 24 243 18 704 -11 920
-2 19 -7 54 -10 78 -9 71 -15 117 -20 142 -3 14 -8 41 -11 60 -3 19 -7 42 -9
50 -2 8 -7 30 -10 49 -9 54 -99 318 -145 426 -346 809 -950 1316 -1680 1410
-57 8 -414 17 -420 12z"/>
<path d="M3557 5964 c-1 -1 -34 -5 -72 -8 -88 -8 -108 -12 -134 -25 -81 -44
-81 -175 0 -217 26 -13 49 -15 128 -8 109 8 273 8 337 0 24 -3 65 -9 92 -12
187 -23 392 -94 557 -192 121 -72 259 -191 289 -250 22 -43 56 -135 51 -140
-2 -2 -30 18 -63 46 -114 94 -306 210 -457 274 -80 34 -226 78 -327 97 -132
25 -241 34 -458 35 l-176 1 -49 36 c-160 117 -336 138 -545 66 -71 -24 -247
-116 -317 -166 -206 -145 -445 -445 -657 -821 -106 -189 -197 -385 -200 -433
-5 -74 45 -127 120 -127 70 0 84 18 198 244 268 536 533 868 801 1003 117 59
194 84 273 89 39 2 72 0 72 -4 0 -4 -26 -20 -57 -37 -378 -197 -714 -582 -909
-1039 -70 -165 -144 -398 -167 -531 -3 -16 -8 -41 -11 -55 -20 -88 -43 -280
-51 -420 -3 -52 -8 -106 -11 -120 -2 -14 -6 -36 -9 -49 -6 -33 -43 -107 -61
-122 -13 -11 -19 -9 -35 11 -29 38 -65 119 -79 180 -26 109 -17 317 19 446 15
53 14 80 -5 119 -31 66 -128 86 -184 38 -36 -30 -46 -51 -66 -148 -37 -175
-38 -402 -2 -530 7 -22 12 -42 13 -45 12 -53 66 -160 109 -215 l34 -46 -37
-82 c-124 -268 -231 -619 -262 -859 -24 -181 -14 -410 21 -464 32 -52 115 -70
170 -37 48 28 64 78 52 164 -16 125 -4 299 32 466 8 39 57 217 63 233 3 8 7
17 8 20 21 83 154 412 190 471 6 9 28 26 51 37 62 32 132 108 169 187 47 101
56 146 70 355 6 87 13 156 20 200 2 14 7 48 11 75 3 28 8 53 10 56 2 4 6 25 9
48 3 22 18 91 34 153 91 350 241 648 455 906 47 57 164 168 235 224 42 32 81
63 88 68 34 28 198 115 266 141 135 52 190 62 342 62 296 0 499 -41 725 -150
78 -37 251 -141 270 -162 3 -3 28 -24 55 -46 114 -91 253 -232 340 -346 22
-28 52 -66 66 -83 81 -98 99 -152 104 -308 3 -65 9 -127 15 -139 17 -32 71
-59 116 -59 31 0 49 7 71 28 43 40 50 65 47 182 -4 190 -44 308 -145 437 -27
33 -56 76 -64 95 -11 28 -49 194 -79 348 -11 57 -50 170 -84 240 -28 58 -55
94 -122 160 -252 250 -612 407 -1020 445 -57 6 -279 12 -283 9z"/>
<path d="M5705 5300 c-38 -15 -67 -57 -72 -103 -5 -39 0 -53 39 -120 25 -42
62 -118 83 -169 20 -51 41 -102 46 -113 46 -105 140 -449 153 -560 2 -22 7
-58 10 -80 20 -138 29 -301 29 -485 0 -138 -9 -362 -17 -422 -3 -18 -8 -60
-11 -93 -14 -141 -19 -183 -35 -275 -5 -30 -11 -71 -14 -90 -3 -19 -8 -46 -11
-60 -3 -14 -10 -52 -16 -85 -6 -33 -26 -127 -45 -210 -20 -82 -37 -157 -39
-165 -1 -8 -9 -35 -16 -60 -7 -25 -13 -49 -15 -55 -31 -138 -210 -676 -281
-845 -3 -8 -7 -19 -9 -25 -20 -75 -259 -604 -386 -854 -43 -84 -77 -156 -75
-158 6 -6 183 61 329 124 l128 55 69 87 c147 184 347 389 445 456 100 69 179
139 239 210 86 103 180 308 211 460 4 17 9 41 12 55 8 40 12 63 18 100 29 196
22 658 -10 727 -21 42 -57 65 -111 68 -39 3 -48 -1 -84 -35 l-41 -39 8 -143
c16 -308 2 -534 -43 -698 -61 -227 -149 -368 -282 -457 -68 -45 -153 -113
-208 -166 -24 -23 -43 -37 -43 -32 0 6 14 44 31 85 169 413 348 991 424 1373
8 40 17 83 20 97 6 27 40 231 50 295 3 22 7 54 10 70 9 57 14 100 20 170 3 39
8 84 10 100 22 163 23 619 1 841 -32 326 -109 622 -245 937 -110 258 -178 328
-276 287z"/>
<path d="M3445 5094 c-162 -31 -206 -44 -300 -91 -97 -49 -147 -85 -238 -172
-178 -170 -331 -443 -436 -776 -34 -109 -81 -286 -97 -369 -18 -92 -44 -239
-49 -276 -3 -25 -8 -56 -10 -70 -3 -14 -7 -50 -10 -81 -3 -31 -7 -64 -9 -75
-2 -10 -7 -39 -11 -64 -4 -25 -21 -74 -37 -110 -26 -56 -58 -92 -217 -250
-260 -258 -338 -380 -399 -626 -29 -119 -25 -162 19 -205 16 -16 33 -29 37
-30 4 0 18 -2 32 -4 40 -4 98 24 119 59 10 17 22 52 25 79 16 109 77 248 152
347 57 74 154 176 154 162 0 -21 -71 -225 -130 -372 -139 -347 -304 -622 -481
-803 -39 -39 -77 -85 -84 -102 -43 -102 73 -203 173 -151 37 19 164 154 238
251 215 286 399 679 543 1162 29 95 54 180 56 191 2 10 10 47 19 83 9 35 18
96 21 134 9 122 16 193 30 303 14 110 16 131 25 182 5 30 12 69 14 85 10 55
46 230 57 270 6 22 12 45 13 50 2 8 13 46 31 105 1 3 5 19 10 35 4 17 28 84
53 150 156 416 381 661 657 719 88 18 283 18 390 0 406 -71 680 -308 843 -734
68 -175 104 -397 105 -643 0 -122 -3 -180 -18 -317 -21 -190 -105 -502 -195
-720 -32 -79 -190 -401 -200 -410 -3 -3 -24 -36 -45 -75 -81 -147 -343 -544
-518 -787 -138 -191 -344 -501 -441 -662 -81 -134 -188 -337 -182 -343 4 -4
50 -11 176 -29 25 -3 48 -8 52 -11 9 -5 58 45 58 58 0 9 93 174 144 254 85
135 242 367 422 625 110 157 240 347 289 422 50 76 93 138 96 138 7 0 17 -32
27 -85 12 -69 4 -210 -17 -282 -5 -18 -8 -33 -6 -33 2 0 -14 -52 -36 -115 -64
-188 -142 -351 -265 -556 -72 -120 -247 -383 -275 -415 -11 -11 -19 -24 -19
-28 0 -6 273 -3 308 4 1 0 40 57 86 128 212 327 364 632 429 862 82 293 65
544 -48 715 -20 30 -35 58 -33 62 1 5 33 64 70 133 138 259 247 538 308 793
31 130 34 146 50 247 48 309 43 590 -15 902 -3 15 -10 39 -15 53 -5 14 -7 25
-5 25 2 0 0 11 -5 25 -5 14 -12 36 -14 48 -8 43 -59 174 -104 266 -69 144
-155 265 -266 376 -203 203 -424 311 -731 361 -39 7 -344 13 -370 8z"/>
<path d="M3517 4584 c-2 -2 -21 -6 -43 -8 -61 -6 -183 -54 -249 -98 -244 -162
-381 -491 -434 -1038 -16 -158 -21 -236 -36 -559 -4 -73 -9 -143 -11 -155 -2
-11 -7 -34 -10 -51 -81 -449 -401 -1036 -884 -1624 -114 -138 -112 -135 -115
-178 -5 -69 35 -117 108 -128 59 -10 93 15 197 141 437 534 748 1068 883 1514
33 109 56 204 63 260 1 14 5 43 8 65 2 22 7 92 10 155 4 63 9 160 12 215 12
219 28 387 49 532 69 466 225 682 514 712 183 18 350 -56 472 -210 29 -37 62
-140 76 -239 9 -64 9 -254 0 -327 -26 -216 -118 -429 -231 -537 -98 -94 -180
-125 -323 -124 -128 2 -199 -8 -274 -37 -101 -40 -173 -111 -206 -205 -37
-104 26 -196 125 -183 52 7 78 29 103 84 17 38 32 53 63 69 42 20 66 22 201
20 44 0 114 6 155 15 73 15 192 66 239 102 113 87 209 207 277 345 l36 73 -6
-55 c-9 -82 -24 -161 -50 -260 -28 -106 -104 -266 -179 -379 -53 -78 -61 -114
-38 -169 28 -68 123 -92 183 -46 63 47 195 290 251 459 54 164 69 238 87 410
14 142 1 435 -25 525 -2 8 -6 28 -9 43 -5 31 -34 134 -43 157 -3 8 -7 17 -8
20 -9 38 -36 102 -72 175 -143 288 -347 462 -603 515 -49 10 -254 13 -263 4z"/>
<path d="M3598 4149 c-75 -17 -176 -105 -246 -215 -46 -73 -100 -213 -123
-316 -46 -209 -13 -371 95 -471 88 -82 223 -104 328 -53 63 29 93 56 135 117
57 82 92 184 108 309 4 30 9 66 11 80 17 101 -5 328 -40 412 -46 108 -153 163
-268 137z m57 -315 c25 -205 -25 -459 -102 -509 -24 -16 -27 -16 -51 2 -14 11
-30 33 -35 49 -23 79 7 242 68 370 34 70 88 144 105 144 4 0 11 -25 15 -56z"/>
<path d="M6391 4063 c-66 -34 -73 -55 -74 -205 0 -128 10 -336 18 -401 3 -18
7 -57 10 -87 25 -235 69 -386 167 -565 150 -273 230 -578 224 -850 -3 -138 -6
-153 -57 -331 -7 -22 -9 -53 -5 -68 8 -33 57 -86 80 -86 21 0 204 246 218 295
7 25 12 109 12 220 0 147 -4 201 -23 295 -25 129 -67 277 -105 373 -14 35 -26
67 -26 71 0 9 -86 182 -133 267 -50 92 -89 243 -103 404 -3 33 -7 70 -9 82 -6
37 -18 269 -20 393 -1 72 -6 125 -15 142 -27 57 -101 80 -159 51z"/>
<path d="M3650 2485 c-30 -8 -73 -17 -95 -19 -119 -15 -239 -66 -317 -135 -71
-63 -122 -148 -276 -461 -201 -407 -292 -575 -415 -770 -45 -71 -155 -228
-172 -246 -5 -6 -30 -35 -55 -65 -52 -62 -116 -126 -179 -177 -24 -21 -50 -50
-57 -67 l-12 -30 106 -52 c59 -29 110 -53 114 -53 15 0 216 209 279 290 194
250 312 452 596 1022 231 463 227 459 438 498 55 11 120 25 145 31 109 29 143
145 65 219 -30 28 -91 34 -165 15z"/>
<path d="M3922 2140 c-92 -49 -581 -693 -845 -1111 -152 -241 -220 -366 -392
-711 -22 -44 -23 -49 -7 -56 26 -13 221 -66 226 -61 2 2 34 64 71 138 74 149
172 327 260 471 133 219 406 610 559 801 34 42 75 93 91 115 17 21 68 83 114
138 92 109 114 152 100 199 -23 80 -105 116 -177 77z"/>
</g>
</svg>
